<mxfile host="app.diagrams.net" modified="2024-05-22T04:07:24.071Z" agent="Mozilla/5.0 (Windows NT 10.0; Win64; x64) AppleWebKit/537.36 (KHTML, like Gecko) Chrome/124.0.0.0 Safari/537.36" version="24.4.4" etag="I6S1lG4uFDPqwvTY-pKh" type="github">
  <diagram name="Halaman-1" id="ocK-3QOAQlx6sztKFi2W">
    <mxGraphModel>
      <root>
        <mxCell id="0" />
        <mxCell id="1" parent="0" />
      </root>
    </mxGraphModel>
  </diagram>
</mxfile>
